<mxfile host="app.diagrams.net" agent="Mozilla/5.0 (Windows NT 10.0; Win64; x64) AppleWebKit/537.36 (KHTML, like Gecko) Chrome/133.0.0.0 Safari/537.36" version="26.0.12">
  <diagram name="Page-1" id="2YBvvXClWsGukQMizWep">
    <mxGraphModel dx="2373" dy="1415" grid="1" gridSize="10" guides="1" tooltips="1" connect="1" arrows="1" fold="1" page="1" pageScale="1" pageWidth="850" pageHeight="1100" math="0" shadow="0">
      <root>
        <mxCell id="0" />
        <mxCell id="1" parent="0" />
        <mxCell id="AU9oRnxPqavcrpE8YhV_-1" value="Criar nova marca" style="shape=umlFrame;whiteSpace=wrap;html=1;pointerEvents=0;recursiveResize=0;container=1;collapsible=0;width=160;" parent="1" vertex="1">
          <mxGeometry x="50" y="50" width="1630" height="1450" as="geometry" />
        </mxCell>
        <mxCell id="AU9oRnxPqavcrpE8YhV_-4" value="" style="group" parent="AU9oRnxPqavcrpE8YhV_-1" vertex="1" connectable="0">
          <mxGeometry x="60" y="80" width="60" height="1550" as="geometry" />
        </mxCell>
        <mxCell id="AU9oRnxPqavcrpE8YhV_-2" value="" style="shape=umlLifeline;perimeter=lifelinePerimeter;whiteSpace=wrap;html=1;container=1;dropTarget=0;collapsible=0;recursiveResize=0;outlineConnect=0;portConstraint=eastwest;newEdgeStyle={&quot;curved&quot;:0,&quot;rounded&quot;:0};participant=umlActor;" parent="AU9oRnxPqavcrpE8YhV_-4" vertex="1">
          <mxGeometry x="20" y="30" width="20" height="1310" as="geometry" />
        </mxCell>
        <mxCell id="AU9oRnxPqavcrpE8YhV_-16" value="" style="html=1;points=[[0,0,0,0,5],[0,1,0,0,-5],[1,0,0,0,5],[1,1,0,0,-5]];perimeter=orthogonalPerimeter;outlineConnect=0;targetShapes=umlLifeline;portConstraint=eastwest;newEdgeStyle={&quot;curved&quot;:0,&quot;rounded&quot;:0};" parent="AU9oRnxPqavcrpE8YhV_-2" vertex="1">
          <mxGeometry x="5" y="70" width="10" height="80" as="geometry" />
        </mxCell>
        <mxCell id="AU9oRnxPqavcrpE8YhV_-3" value="Usuário" style="text;html=1;align=center;verticalAlign=middle;resizable=0;points=[];autosize=1;strokeColor=none;fillColor=none;" parent="AU9oRnxPqavcrpE8YhV_-4" vertex="1">
          <mxGeometry width="60" height="30" as="geometry" />
        </mxCell>
        <mxCell id="AU9oRnxPqavcrpE8YhV_-7" value="" style="group" parent="AU9oRnxPqavcrpE8YhV_-1" vertex="1" connectable="0">
          <mxGeometry x="220" y="80" width="150" height="1550" as="geometry" />
        </mxCell>
        <mxCell id="AU9oRnxPqavcrpE8YhV_-5" value="" style="shape=umlLifeline;perimeter=lifelinePerimeter;whiteSpace=wrap;html=1;container=1;dropTarget=0;collapsible=0;recursiveResize=0;outlineConnect=0;portConstraint=eastwest;newEdgeStyle={&quot;curved&quot;:0,&quot;rounded&quot;:0};participant=umlBoundary;" parent="AU9oRnxPqavcrpE8YhV_-7" vertex="1">
          <mxGeometry x="50" y="44.39" width="50" height="1295.61" as="geometry" />
        </mxCell>
        <mxCell id="AU9oRnxPqavcrpE8YhV_-17" value="" style="html=1;points=[[0,0,0,0,5],[0,1,0,0,-5],[1,0,0,0,5],[1,1,0,0,-5]];perimeter=orthogonalPerimeter;outlineConnect=0;targetShapes=umlLifeline;portConstraint=eastwest;newEdgeStyle={&quot;curved&quot;:0,&quot;rounded&quot;:0};" parent="AU9oRnxPqavcrpE8YhV_-5" vertex="1">
          <mxGeometry x="20" y="88.78" width="10" height="1181.22" as="geometry" />
        </mxCell>
        <mxCell id="LQRPac4V3_1cjcKSM1Tx-4" value="" style="html=1;points=[[0,0,0,0,5],[0,1,0,0,-5],[1,0,0,0,5],[1,1,0,0,-5]];perimeter=orthogonalPerimeter;outlineConnect=0;targetShapes=umlLifeline;portConstraint=eastwest;newEdgeStyle={&quot;curved&quot;:0,&quot;rounded&quot;:0};" parent="AU9oRnxPqavcrpE8YhV_-5" vertex="1">
          <mxGeometry x="25" y="1225.6100000000001" width="10" height="40" as="geometry" />
        </mxCell>
        <mxCell id="LQRPac4V3_1cjcKSM1Tx-5" value="exibir resposta" style="html=1;align=left;spacingLeft=2;endArrow=block;rounded=0;edgeStyle=orthogonalEdgeStyle;curved=0;rounded=0;" parent="AU9oRnxPqavcrpE8YhV_-5" target="LQRPac4V3_1cjcKSM1Tx-4" edge="1">
          <mxGeometry relative="1" as="geometry">
            <mxPoint x="30" y="1205.6100000000001" as="sourcePoint" />
            <Array as="points">
              <mxPoint x="60" y="1235.6100000000001" />
            </Array>
          </mxGeometry>
        </mxCell>
        <mxCell id="AU9oRnxPqavcrpE8YhV_-6" value=":Interface&lt;div&gt;Formulário de cadastro&lt;/div&gt;" style="text;html=1;align=center;verticalAlign=middle;resizable=0;points=[];autosize=1;strokeColor=none;fillColor=none;" parent="AU9oRnxPqavcrpE8YhV_-7" vertex="1">
          <mxGeometry width="150" height="40" as="geometry" />
        </mxCell>
        <mxCell id="AU9oRnxPqavcrpE8YhV_-11" value="" style="group" parent="AU9oRnxPqavcrpE8YhV_-1" vertex="1" connectable="0">
          <mxGeometry x="530" y="615" width="90" height="1180" as="geometry" />
        </mxCell>
        <mxCell id="AU9oRnxPqavcrpE8YhV_-9" value="" style="shape=umlLifeline;perimeter=lifelinePerimeter;whiteSpace=wrap;html=1;container=1;dropTarget=0;collapsible=0;recursiveResize=0;outlineConnect=0;portConstraint=eastwest;newEdgeStyle={&quot;curved&quot;:0,&quot;rounded&quot;:0};participant=umlControl;" parent="AU9oRnxPqavcrpE8YhV_-11" vertex="1">
          <mxGeometry x="25" y="39.64" width="40" height="760.36" as="geometry" />
        </mxCell>
        <mxCell id="AU9oRnxPqavcrpE8YhV_-28" value="" style="html=1;points=[[0,0,0,0,5],[0,1,0,0,-5],[1,0,0,0,5],[1,1,0,0,-5]];perimeter=orthogonalPerimeter;outlineConnect=0;targetShapes=umlLifeline;portConstraint=eastwest;newEdgeStyle={&quot;curved&quot;:0,&quot;rounded&quot;:0};" parent="AU9oRnxPqavcrpE8YhV_-9" vertex="1">
          <mxGeometry x="15" y="64.41" width="10" height="585.59" as="geometry" />
        </mxCell>
        <mxCell id="AU9oRnxPqavcrpE8YhV_-10" value=":Controlador&lt;div&gt;Marcas&lt;/div&gt;" style="text;html=1;align=center;verticalAlign=middle;resizable=0;points=[];autosize=1;strokeColor=none;fillColor=none;" parent="AU9oRnxPqavcrpE8YhV_-11" vertex="1">
          <mxGeometry width="90" height="40" as="geometry" />
        </mxCell>
        <mxCell id="AU9oRnxPqavcrpE8YhV_-13" value="" style="group" parent="AU9oRnxPqavcrpE8YhV_-1" vertex="1" connectable="0">
          <mxGeometry x="790" y="610" width="70" height="1190" as="geometry" />
        </mxCell>
        <mxCell id="AU9oRnxPqavcrpE8YhV_-8" value="" style="shape=umlLifeline;perimeter=lifelinePerimeter;whiteSpace=wrap;html=1;container=1;dropTarget=0;collapsible=0;recursiveResize=0;outlineConnect=0;portConstraint=eastwest;newEdgeStyle={&quot;curved&quot;:0,&quot;rounded&quot;:0};participant=umlEntity;" parent="AU9oRnxPqavcrpE8YhV_-13" vertex="1">
          <mxGeometry x="15" y="40" width="40" height="760" as="geometry" />
        </mxCell>
        <mxCell id="AU9oRnxPqavcrpE8YhV_-29" value="" style="html=1;points=[[0,0,0,0,5],[0,1,0,0,-5],[1,0,0,0,5],[1,1,0,0,-5]];perimeter=orthogonalPerimeter;outlineConnect=0;targetShapes=umlLifeline;portConstraint=eastwest;newEdgeStyle={&quot;curved&quot;:0,&quot;rounded&quot;:0};" parent="AU9oRnxPqavcrpE8YhV_-8" vertex="1">
          <mxGeometry x="15" y="90" width="10" height="530" as="geometry" />
        </mxCell>
        <mxCell id="AU9oRnxPqavcrpE8YhV_-38" value="" style="html=1;points=[[0,0,0,0,5],[0,1,0,0,-5],[1,0,0,0,5],[1,1,0,0,-5]];perimeter=orthogonalPerimeter;outlineConnect=0;targetShapes=umlLifeline;portConstraint=eastwest;newEdgeStyle={&quot;curved&quot;:0,&quot;rounded&quot;:0};" parent="AU9oRnxPqavcrpE8YhV_-8" vertex="1">
          <mxGeometry x="20" y="140" width="10" height="40" as="geometry" />
        </mxCell>
        <mxCell id="AU9oRnxPqavcrpE8YhV_-39" value="new Marca(dados)" style="html=1;align=left;spacingLeft=2;endArrow=block;rounded=0;edgeStyle=orthogonalEdgeStyle;curved=0;rounded=0;" parent="AU9oRnxPqavcrpE8YhV_-8" target="AU9oRnxPqavcrpE8YhV_-38" edge="1">
          <mxGeometry relative="1" as="geometry">
            <mxPoint x="25" y="120" as="sourcePoint" />
            <Array as="points">
              <mxPoint x="55" y="150" />
            </Array>
          </mxGeometry>
        </mxCell>
        <mxCell id="AU9oRnxPqavcrpE8YhV_-54" value="" style="html=1;points=[[0,0,0,0,5],[0,1,0,0,-5],[1,0,0,0,5],[1,1,0,0,-5]];perimeter=orthogonalPerimeter;outlineConnect=0;targetShapes=umlLifeline;portConstraint=eastwest;newEdgeStyle={&quot;curved&quot;:0,&quot;rounded&quot;:0};" parent="AU9oRnxPqavcrpE8YhV_-8" vertex="1">
          <mxGeometry x="20" y="550" width="10" height="40" as="geometry" />
        </mxCell>
        <mxCell id="AU9oRnxPqavcrpE8YhV_-55" value="Resposta.message = &quot;Marca cadastrada com sucesso.&quot;;&lt;div&gt;Resposta.status = 200;&lt;/div&gt;" style="html=1;align=left;spacingLeft=2;endArrow=block;rounded=0;edgeStyle=orthogonalEdgeStyle;curved=0;rounded=0;" parent="AU9oRnxPqavcrpE8YhV_-8" target="AU9oRnxPqavcrpE8YhV_-54" edge="1">
          <mxGeometry relative="1" as="geometry">
            <mxPoint x="25" y="530" as="sourcePoint" />
            <Array as="points">
              <mxPoint x="55" y="560" />
            </Array>
          </mxGeometry>
        </mxCell>
        <mxCell id="AU9oRnxPqavcrpE8YhV_-12" value=":Service&lt;div&gt;Marcas&lt;/div&gt;" style="text;html=1;align=center;verticalAlign=middle;resizable=0;points=[];autosize=1;strokeColor=none;fillColor=none;" parent="AU9oRnxPqavcrpE8YhV_-13" vertex="1">
          <mxGeometry width="70" height="40" as="geometry" />
        </mxCell>
        <mxCell id="AU9oRnxPqavcrpE8YhV_-14" value=":DbContext&amp;lt;MarcasModel&amp;gt;" style="shape=umlLifeline;perimeter=lifelinePerimeter;whiteSpace=wrap;html=1;container=1;dropTarget=0;collapsible=0;recursiveResize=0;outlineConnect=0;portConstraint=eastwest;newEdgeStyle={&quot;curved&quot;:0,&quot;rounded&quot;:0};" parent="AU9oRnxPqavcrpE8YhV_-1" vertex="1">
          <mxGeometry x="1090" y="660" width="160" height="750" as="geometry" />
        </mxCell>
        <mxCell id="AU9oRnxPqavcrpE8YhV_-40" value="" style="html=1;points=[[0,0,0,0,5],[0,1,0,0,-5],[1,0,0,0,5],[1,1,0,0,-5]];perimeter=orthogonalPerimeter;outlineConnect=0;targetShapes=umlLifeline;portConstraint=eastwest;newEdgeStyle={&quot;curved&quot;:0,&quot;rounded&quot;:0};" parent="AU9oRnxPqavcrpE8YhV_-14" vertex="1">
          <mxGeometry x="75" y="200" width="10" height="120" as="geometry" />
        </mxCell>
        <mxCell id="AU9oRnxPqavcrpE8YhV_-48" value="" style="html=1;points=[[0,0,0,0,5],[0,1,0,0,-5],[1,0,0,0,5],[1,1,0,0,-5]];perimeter=orthogonalPerimeter;outlineConnect=0;targetShapes=umlLifeline;portConstraint=eastwest;newEdgeStyle={&quot;curved&quot;:0,&quot;rounded&quot;:0};" parent="AU9oRnxPqavcrpE8YhV_-14" vertex="1">
          <mxGeometry x="75" y="380" width="10" height="100" as="geometry" />
        </mxCell>
        <mxCell id="AU9oRnxPqavcrpE8YhV_-15" value=":Db marcas" style="shape=umlLifeline;perimeter=lifelinePerimeter;whiteSpace=wrap;html=1;container=1;dropTarget=0;collapsible=0;recursiveResize=0;outlineConnect=0;portConstraint=eastwest;newEdgeStyle={&quot;curved&quot;:0,&quot;rounded&quot;:0};" parent="AU9oRnxPqavcrpE8YhV_-1" vertex="1">
          <mxGeometry x="1426" y="660" width="160" height="750" as="geometry" />
        </mxCell>
        <mxCell id="AU9oRnxPqavcrpE8YhV_-43" value="" style="html=1;points=[[0,0,0,0,5],[0,1,0,0,-5],[1,0,0,0,5],[1,1,0,0,-5]];perimeter=orthogonalPerimeter;outlineConnect=0;targetShapes=umlLifeline;portConstraint=eastwest;newEdgeStyle={&quot;curved&quot;:0,&quot;rounded&quot;:0};" parent="AU9oRnxPqavcrpE8YhV_-15" vertex="1">
          <mxGeometry x="75" y="220" width="10" height="80" as="geometry" />
        </mxCell>
        <mxCell id="AU9oRnxPqavcrpE8YhV_-51" value="" style="html=1;points=[[0,0,0,0,5],[0,1,0,0,-5],[1,0,0,0,5],[1,1,0,0,-5]];perimeter=orthogonalPerimeter;outlineConnect=0;targetShapes=umlLifeline;portConstraint=eastwest;newEdgeStyle={&quot;curved&quot;:0,&quot;rounded&quot;:0};" parent="AU9oRnxPqavcrpE8YhV_-15" vertex="1">
          <mxGeometry x="75" y="400" width="10" height="60" as="geometry" />
        </mxCell>
        <mxCell id="AU9oRnxPqavcrpE8YhV_-18" value="cadastra nova marca" style="html=1;verticalAlign=bottom;endArrow=block;curved=0;rounded=0;entryX=0;entryY=0;entryDx=0;entryDy=5;" parent="AU9oRnxPqavcrpE8YhV_-1" source="AU9oRnxPqavcrpE8YhV_-16" target="AU9oRnxPqavcrpE8YhV_-17" edge="1">
          <mxGeometry relative="1" as="geometry">
            <mxPoint x="220" y="195" as="sourcePoint" />
          </mxGeometry>
        </mxCell>
        <mxCell id="AU9oRnxPqavcrpE8YhV_-21" value="Ref" style="shape=umlFrame;whiteSpace=wrap;html=1;pointerEvents=0;recursiveResize=0;container=1;collapsible=0;width=50;" parent="AU9oRnxPqavcrpE8YhV_-1" vertex="1">
          <mxGeometry x="440" y="180" width="180" height="100" as="geometry" />
        </mxCell>
        <mxCell id="AU9oRnxPqavcrpE8YhV_-22" value="validar token" style="text;align=center;html=1;" parent="AU9oRnxPqavcrpE8YhV_-21" vertex="1">
          <mxGeometry width="100" height="20" relative="1" as="geometry">
            <mxPoint x="40" y="40" as="offset" />
          </mxGeometry>
        </mxCell>
        <mxCell id="AU9oRnxPqavcrpE8YhV_-23" value="Ref" style="shape=umlFrame;whiteSpace=wrap;html=1;pointerEvents=0;recursiveResize=0;container=1;collapsible=0;width=50;" parent="AU9oRnxPqavcrpE8YhV_-1" vertex="1">
          <mxGeometry x="440" y="315" width="180" height="100" as="geometry" />
        </mxCell>
        <mxCell id="AU9oRnxPqavcrpE8YhV_-24" value="Verificação de permissão&lt;div&gt;(funcionario)&lt;/div&gt;" style="text;align=center;html=1;" parent="AU9oRnxPqavcrpE8YhV_-23" vertex="1">
          <mxGeometry width="100" height="20" relative="1" as="geometry">
            <mxPoint x="40" y="40" as="offset" />
          </mxGeometry>
        </mxCell>
        <mxCell id="AU9oRnxPqavcrpE8YhV_-25" value="" style="html=1;verticalAlign=bottom;endArrow=block;curved=0;rounded=0;entryX=-0.012;entryY=0.547;entryDx=0;entryDy=0;entryPerimeter=0;" parent="AU9oRnxPqavcrpE8YhV_-1" source="AU9oRnxPqavcrpE8YhV_-17" target="AU9oRnxPqavcrpE8YhV_-21" edge="1">
          <mxGeometry width="80" relative="1" as="geometry">
            <mxPoint x="390" y="280" as="sourcePoint" />
            <mxPoint x="470" y="280" as="targetPoint" />
          </mxGeometry>
        </mxCell>
        <mxCell id="AU9oRnxPqavcrpE8YhV_-26" value="" style="html=1;verticalAlign=bottom;endArrow=block;curved=0;rounded=0;entryX=0.002;entryY=0.521;entryDx=0;entryDy=0;entryPerimeter=0;" parent="AU9oRnxPqavcrpE8YhV_-1" source="AU9oRnxPqavcrpE8YhV_-17" target="AU9oRnxPqavcrpE8YhV_-23" edge="1">
          <mxGeometry width="80" relative="1" as="geometry">
            <mxPoint x="400" y="450" as="sourcePoint" />
            <mxPoint x="480" y="450" as="targetPoint" />
          </mxGeometry>
        </mxCell>
        <mxCell id="AU9oRnxPqavcrpE8YhV_-27" value="CriarNovaMarca&lt;div&gt;(CriarMarcaDto dados)&lt;/div&gt;" style="html=1;verticalAlign=bottom;endArrow=block;curved=0;rounded=0;entryX=0.125;entryY=0.022;entryDx=0;entryDy=0;entryPerimeter=0;" parent="AU9oRnxPqavcrpE8YhV_-1" source="AU9oRnxPqavcrpE8YhV_-17" target="AU9oRnxPqavcrpE8YhV_-9" edge="1">
          <mxGeometry width="80" relative="1" as="geometry">
            <mxPoint x="300" y="679.7279199999998" as="sourcePoint" />
            <mxPoint x="560" y="671.0441199999998" as="targetPoint" />
          </mxGeometry>
        </mxCell>
        <mxCell id="AU9oRnxPqavcrpE8YhV_-30" value="CriarMarca(dados)" style="html=1;verticalAlign=bottom;endArrow=block;curved=0;rounded=0;entryX=0;entryY=0;entryDx=0;entryDy=5;" parent="AU9oRnxPqavcrpE8YhV_-1" source="AU9oRnxPqavcrpE8YhV_-28" target="AU9oRnxPqavcrpE8YhV_-29" edge="1">
          <mxGeometry relative="1" as="geometry">
            <mxPoint x="750" y="745" as="sourcePoint" />
          </mxGeometry>
        </mxCell>
        <mxCell id="AU9oRnxPqavcrpE8YhV_-35" value="Ref" style="shape=umlFrame;whiteSpace=wrap;html=1;pointerEvents=0;recursiveResize=0;container=1;collapsible=0;width=50;" parent="AU9oRnxPqavcrpE8YhV_-1" vertex="1">
          <mxGeometry x="440" y="450" width="180" height="100" as="geometry" />
        </mxCell>
        <mxCell id="AU9oRnxPqavcrpE8YhV_-36" value="validar criação de marcas" style="text;align=center;html=1;" parent="AU9oRnxPqavcrpE8YhV_-35" vertex="1">
          <mxGeometry width="100" height="20" relative="1" as="geometry">
            <mxPoint x="40" y="40" as="offset" />
          </mxGeometry>
        </mxCell>
        <mxCell id="AU9oRnxPqavcrpE8YhV_-37" value="" style="html=1;verticalAlign=bottom;endArrow=block;curved=0;rounded=0;entryX=0.002;entryY=0.521;entryDx=0;entryDy=0;entryPerimeter=0;" parent="AU9oRnxPqavcrpE8YhV_-1" source="AU9oRnxPqavcrpE8YhV_-17" target="AU9oRnxPqavcrpE8YhV_-35" edge="1">
          <mxGeometry width="80" relative="1" as="geometry">
            <mxPoint x="300" y="502" as="sourcePoint" />
            <mxPoint x="480" y="585" as="targetPoint" />
          </mxGeometry>
        </mxCell>
        <mxCell id="AU9oRnxPqavcrpE8YhV_-41" value="_context.Marcas.add(Marca);" style="html=1;verticalAlign=bottom;endArrow=block;curved=0;rounded=0;entryX=0;entryY=0;entryDx=0;entryDy=5;" parent="AU9oRnxPqavcrpE8YhV_-1" target="AU9oRnxPqavcrpE8YhV_-40" edge="1">
          <mxGeometry relative="1" as="geometry">
            <mxPoint x="830" y="865" as="sourcePoint" />
          </mxGeometry>
        </mxCell>
        <mxCell id="AU9oRnxPqavcrpE8YhV_-44" value="INSERT INTO marcas (...) VALUES(...);" style="html=1;verticalAlign=bottom;endArrow=block;curved=0;rounded=0;" parent="AU9oRnxPqavcrpE8YhV_-1" edge="1">
          <mxGeometry relative="1" as="geometry">
            <mxPoint x="1175" y="881" as="sourcePoint" />
            <mxPoint x="1500" y="881" as="targetPoint" />
          </mxGeometry>
        </mxCell>
        <mxCell id="AU9oRnxPqavcrpE8YhV_-46" value="confirmação" style="html=1;verticalAlign=bottom;endArrow=open;dashed=1;endSize=8;curved=0;rounded=0;exitX=0;exitY=1;exitDx=0;exitDy=-5;exitPerimeter=0;" parent="AU9oRnxPqavcrpE8YhV_-1" edge="1">
          <mxGeometry relative="1" as="geometry">
            <mxPoint x="1501" y="958" as="sourcePoint" />
            <mxPoint x="1175" y="958" as="targetPoint" />
          </mxGeometry>
        </mxCell>
        <mxCell id="AU9oRnxPqavcrpE8YhV_-47" value="confirmação" style="html=1;verticalAlign=bottom;endArrow=open;dashed=1;endSize=8;curved=0;rounded=0;" parent="AU9oRnxPqavcrpE8YhV_-1" source="AU9oRnxPqavcrpE8YhV_-40" edge="1">
          <mxGeometry relative="1" as="geometry">
            <mxPoint x="1215" y="980" as="sourcePoint" />
            <mxPoint x="830.0000000000002" y="980" as="targetPoint" />
          </mxGeometry>
        </mxCell>
        <mxCell id="AU9oRnxPqavcrpE8YhV_-49" value="_context.SaveChangesAsync();" style="html=1;verticalAlign=bottom;endArrow=block;curved=0;rounded=0;entryX=0;entryY=0;entryDx=0;entryDy=5;" parent="AU9oRnxPqavcrpE8YhV_-1" target="AU9oRnxPqavcrpE8YhV_-48" edge="1">
          <mxGeometry relative="1" as="geometry">
            <mxPoint x="830" y="1045" as="sourcePoint" />
          </mxGeometry>
        </mxCell>
        <mxCell id="AU9oRnxPqavcrpE8YhV_-50" value="confirmação" style="html=1;verticalAlign=bottom;endArrow=open;dashed=1;endSize=8;curved=0;rounded=0;" parent="AU9oRnxPqavcrpE8YhV_-1" source="AU9oRnxPqavcrpE8YhV_-48" edge="1">
          <mxGeometry relative="1" as="geometry">
            <mxPoint x="830" y="1139" as="targetPoint" />
            <mxPoint x="1160" y="1140" as="sourcePoint" />
          </mxGeometry>
        </mxCell>
        <mxCell id="AU9oRnxPqavcrpE8YhV_-52" value="COMMIT;" style="html=1;verticalAlign=bottom;endArrow=block;curved=0;rounded=0;entryX=0;entryY=0;entryDx=0;entryDy=5;" parent="AU9oRnxPqavcrpE8YhV_-1" source="AU9oRnxPqavcrpE8YhV_-48" target="AU9oRnxPqavcrpE8YhV_-51" edge="1">
          <mxGeometry relative="1" as="geometry">
            <mxPoint x="1485" y="1065" as="sourcePoint" />
          </mxGeometry>
        </mxCell>
        <mxCell id="AU9oRnxPqavcrpE8YhV_-53" value="confirmação" style="html=1;verticalAlign=bottom;endArrow=open;dashed=1;endSize=8;curved=0;rounded=0;exitX=0;exitY=1;exitDx=0;exitDy=-5;" parent="AU9oRnxPqavcrpE8YhV_-1" edge="1">
          <mxGeometry relative="1" as="geometry">
            <mxPoint x="1175" y="1119" as="targetPoint" />
            <mxPoint x="1501" y="1119" as="sourcePoint" />
          </mxGeometry>
        </mxCell>
        <mxCell id="LQRPac4V3_1cjcKSM1Tx-2" value="return Resposta" style="html=1;verticalAlign=bottom;endArrow=open;dashed=1;endSize=8;curved=0;rounded=0;" parent="AU9oRnxPqavcrpE8YhV_-1" edge="1">
          <mxGeometry relative="1" as="geometry">
            <mxPoint x="820" y="1269" as="sourcePoint" />
            <mxPoint x="580" y="1269" as="targetPoint" />
          </mxGeometry>
        </mxCell>
        <mxCell id="LQRPac4V3_1cjcKSM1Tx-3" value="return Resposta" style="html=1;verticalAlign=bottom;endArrow=open;dashed=1;endSize=8;curved=0;rounded=0;" parent="AU9oRnxPqavcrpE8YhV_-1" edge="1">
          <mxGeometry relative="1" as="geometry">
            <mxPoint x="570" y="1298.8449999999998" as="sourcePoint" />
            <mxPoint x="300" y="1298.8449999999998" as="targetPoint" />
          </mxGeometry>
        </mxCell>
        <mxCell id="LQRPac4V3_1cjcKSM1Tx-1" value="validar criação de marcas" style="shape=umlFrame;whiteSpace=wrap;html=1;pointerEvents=0;recursiveResize=0;container=1;collapsible=0;width=160;" parent="1" vertex="1">
          <mxGeometry x="1960" y="50" width="1320" height="870" as="geometry" />
        </mxCell>
        <mxCell id="LQRPac4V3_1cjcKSM1Tx-9" value=":MIddleware&lt;div&gt;Mcarcas&lt;/div&gt;" style="shape=umlLifeline;perimeter=lifelinePerimeter;whiteSpace=wrap;html=1;container=1;dropTarget=0;collapsible=0;recursiveResize=0;outlineConnect=0;portConstraint=eastwest;newEdgeStyle={&quot;curved&quot;:0,&quot;rounded&quot;:0};" parent="LQRPac4V3_1cjcKSM1Tx-1" vertex="1">
          <mxGeometry x="140" y="110" width="120" height="720" as="geometry" />
        </mxCell>
        <mxCell id="LQRPac4V3_1cjcKSM1Tx-11" value="" style="html=1;points=[[0,0,0,0,5],[0,1,0,0,-5],[1,0,0,0,5],[1,1,0,0,-5]];perimeter=orthogonalPerimeter;outlineConnect=0;targetShapes=umlLifeline;portConstraint=eastwest;newEdgeStyle={&quot;curved&quot;:0,&quot;rounded&quot;:0};" parent="LQRPac4V3_1cjcKSM1Tx-9" vertex="1">
          <mxGeometry x="55" y="70" width="10" height="630" as="geometry" />
        </mxCell>
        <mxCell id="LQRPac4V3_1cjcKSM1Tx-10" value="ValidarCriacaoMarca&lt;div&gt;(CriacarMarcaDto dados)&lt;/div&gt;" style="html=1;verticalAlign=bottom;endArrow=block;curved=0;rounded=0;exitX=0;exitY=0.215;exitDx=0;exitDy=0;exitPerimeter=0;" parent="LQRPac4V3_1cjcKSM1Tx-1" edge="1">
          <mxGeometry width="80" relative="1" as="geometry">
            <mxPoint y="181.05000000000007" as="sourcePoint" />
            <mxPoint x="194.99999999999955" y="181.05000000000007" as="targetPoint" />
          </mxGeometry>
        </mxCell>
        <mxCell id="LQRPac4V3_1cjcKSM1Tx-14" value="" style="group" parent="LQRPac4V3_1cjcKSM1Tx-1" vertex="1" connectable="0">
          <mxGeometry x="385" y="80" width="90" height="970" as="geometry" />
        </mxCell>
        <mxCell id="LQRPac4V3_1cjcKSM1Tx-12" value="" style="shape=umlLifeline;perimeter=lifelinePerimeter;whiteSpace=wrap;html=1;container=1;dropTarget=0;collapsible=0;recursiveResize=0;outlineConnect=0;portConstraint=eastwest;newEdgeStyle={&quot;curved&quot;:0,&quot;rounded&quot;:0};participant=umlControl;" parent="LQRPac4V3_1cjcKSM1Tx-14" vertex="1">
          <mxGeometry x="25" y="40" width="40" height="710" as="geometry" />
        </mxCell>
        <mxCell id="LQRPac4V3_1cjcKSM1Tx-15" value="" style="html=1;points=[[0,0,0,0,5],[0,1,0,0,-5],[1,0,0,0,5],[1,1,0,0,-5]];perimeter=orthogonalPerimeter;outlineConnect=0;targetShapes=umlLifeline;portConstraint=eastwest;newEdgeStyle={&quot;curved&quot;:0,&quot;rounded&quot;:0};" parent="LQRPac4V3_1cjcKSM1Tx-12" vertex="1">
          <mxGeometry x="15" y="73" width="10" height="587" as="geometry" />
        </mxCell>
        <mxCell id="LQRPac4V3_1cjcKSM1Tx-13" value=":Controlador&lt;div&gt;Marcas&lt;/div&gt;" style="text;html=1;align=center;verticalAlign=middle;resizable=0;points=[];autosize=1;strokeColor=none;fillColor=none;" parent="LQRPac4V3_1cjcKSM1Tx-14" vertex="1">
          <mxGeometry width="90" height="40" as="geometry" />
        </mxCell>
        <mxCell id="LQRPac4V3_1cjcKSM1Tx-16" value="BuscarMarcaPorNome(dados.nome)" style="html=1;verticalAlign=bottom;endArrow=block;curved=0;rounded=0;entryX=0;entryY=0;entryDx=0;entryDy=5;" parent="LQRPac4V3_1cjcKSM1Tx-1" source="LQRPac4V3_1cjcKSM1Tx-11" target="LQRPac4V3_1cjcKSM1Tx-15" edge="1">
          <mxGeometry x="-0.0062" relative="1" as="geometry">
            <mxPoint x="355" y="218" as="sourcePoint" />
            <mxPoint as="offset" />
          </mxGeometry>
        </mxCell>
        <mxCell id="LQRPac4V3_1cjcKSM1Tx-20" value="" style="group" parent="LQRPac4V3_1cjcKSM1Tx-1" vertex="1" connectable="0">
          <mxGeometry x="625" y="84" width="70" height="960" as="geometry" />
        </mxCell>
        <mxCell id="LQRPac4V3_1cjcKSM1Tx-18" value="" style="shape=umlLifeline;perimeter=lifelinePerimeter;whiteSpace=wrap;html=1;container=1;dropTarget=0;collapsible=0;recursiveResize=0;outlineConnect=0;portConstraint=eastwest;newEdgeStyle={&quot;curved&quot;:0,&quot;rounded&quot;:0};participant=umlEntity;" parent="LQRPac4V3_1cjcKSM1Tx-20" vertex="1">
          <mxGeometry x="15" y="40" width="40" height="710" as="geometry" />
        </mxCell>
        <mxCell id="LQRPac4V3_1cjcKSM1Tx-21" value="" style="html=1;points=[[0,0,0,0,5],[0,1,0,0,-5],[1,0,0,0,5],[1,1,0,0,-5]];perimeter=orthogonalPerimeter;outlineConnect=0;targetShapes=umlLifeline;portConstraint=eastwest;newEdgeStyle={&quot;curved&quot;:0,&quot;rounded&quot;:0};" parent="LQRPac4V3_1cjcKSM1Tx-18" vertex="1">
          <mxGeometry x="15" y="90" width="10" height="470" as="geometry" />
        </mxCell>
        <mxCell id="LQRPac4V3_1cjcKSM1Tx-19" value=":Service&lt;div&gt;Marcas&lt;/div&gt;" style="text;html=1;align=center;verticalAlign=middle;resizable=0;points=[];autosize=1;strokeColor=none;fillColor=none;" parent="LQRPac4V3_1cjcKSM1Tx-20" vertex="1">
          <mxGeometry width="70" height="40" as="geometry" />
        </mxCell>
        <mxCell id="LQRPac4V3_1cjcKSM1Tx-22" value="BuscarMarcaPorNome(nome)" style="html=1;verticalAlign=bottom;endArrow=block;curved=0;rounded=0;entryX=0;entryY=0;entryDx=0;entryDy=5;" parent="LQRPac4V3_1cjcKSM1Tx-1" source="LQRPac4V3_1cjcKSM1Tx-15" target="LQRPac4V3_1cjcKSM1Tx-21" edge="1">
          <mxGeometry relative="1" as="geometry">
            <mxPoint x="565" y="219" as="sourcePoint" />
          </mxGeometry>
        </mxCell>
        <mxCell id="LQRPac4V3_1cjcKSM1Tx-24" value=":DbContext&amp;lt;MarcasModel&amp;gt;" style="shape=umlLifeline;perimeter=lifelinePerimeter;whiteSpace=wrap;html=1;container=1;dropTarget=0;collapsible=0;recursiveResize=0;outlineConnect=0;portConstraint=eastwest;newEdgeStyle={&quot;curved&quot;:0,&quot;rounded&quot;:0};" parent="LQRPac4V3_1cjcKSM1Tx-1" vertex="1">
          <mxGeometry x="810" y="124" width="180" height="706" as="geometry" />
        </mxCell>
        <mxCell id="LQRPac4V3_1cjcKSM1Tx-25" value="" style="html=1;points=[[0,0,0,0,5],[0,1,0,0,-5],[1,0,0,0,5],[1,1,0,0,-5]];perimeter=orthogonalPerimeter;outlineConnect=0;targetShapes=umlLifeline;portConstraint=eastwest;newEdgeStyle={&quot;curved&quot;:0,&quot;rounded&quot;:0};" parent="LQRPac4V3_1cjcKSM1Tx-24" vertex="1">
          <mxGeometry x="85" y="110" width="10" height="410" as="geometry" />
        </mxCell>
        <mxCell id="LQRPac4V3_1cjcKSM1Tx-26" value="_context.Marcas.SingleOrDefaultAsync&lt;div&gt;(nome == :nome);&lt;/div&gt;" style="html=1;verticalAlign=bottom;endArrow=block;curved=0;rounded=0;entryX=0;entryY=0;entryDx=0;entryDy=5;" parent="LQRPac4V3_1cjcKSM1Tx-1" source="LQRPac4V3_1cjcKSM1Tx-21" target="LQRPac4V3_1cjcKSM1Tx-25" edge="1">
          <mxGeometry relative="1" as="geometry">
            <mxPoint x="825" y="239" as="sourcePoint" />
          </mxGeometry>
        </mxCell>
        <mxCell id="LQRPac4V3_1cjcKSM1Tx-28" value=":DB marcas" style="shape=umlLifeline;perimeter=lifelinePerimeter;whiteSpace=wrap;html=1;container=1;dropTarget=0;collapsible=0;recursiveResize=0;outlineConnect=0;portConstraint=eastwest;newEdgeStyle={&quot;curved&quot;:0,&quot;rounded&quot;:0};" parent="LQRPac4V3_1cjcKSM1Tx-1" vertex="1">
          <mxGeometry x="1100" y="124" width="190" height="706" as="geometry" />
        </mxCell>
        <mxCell id="LQRPac4V3_1cjcKSM1Tx-29" value="" style="html=1;points=[[0,0,0,0,5],[0,1,0,0,-5],[1,0,0,0,5],[1,1,0,0,-5]];perimeter=orthogonalPerimeter;outlineConnect=0;targetShapes=umlLifeline;portConstraint=eastwest;newEdgeStyle={&quot;curved&quot;:0,&quot;rounded&quot;:0};" parent="LQRPac4V3_1cjcKSM1Tx-28" vertex="1">
          <mxGeometry x="90" y="126" width="10" height="364" as="geometry" />
        </mxCell>
        <mxCell id="LQRPac4V3_1cjcKSM1Tx-30" value="SELECT * FROM marcas&amp;nbsp;&lt;div&gt;WHERE nome = :nome;&lt;/div&gt;" style="html=1;verticalAlign=bottom;endArrow=block;curved=0;rounded=0;entryX=0;entryY=0;entryDx=0;entryDy=5;align=left;" parent="LQRPac4V3_1cjcKSM1Tx-1" source="LQRPac4V3_1cjcKSM1Tx-25" target="LQRPac4V3_1cjcKSM1Tx-29" edge="1">
          <mxGeometry x="-0.3333" y="5" relative="1" as="geometry">
            <mxPoint x="1140" y="255" as="sourcePoint" />
            <mxPoint as="offset" />
          </mxGeometry>
        </mxCell>
        <mxCell id="LQRPac4V3_1cjcKSM1Tx-32" value="Alt" style="shape=umlFrame;whiteSpace=wrap;html=1;pointerEvents=0;recursiveResize=0;container=1;collapsible=0;width=170;" parent="LQRPac4V3_1cjcKSM1Tx-1" vertex="1">
          <mxGeometry x="20" y="284" width="1280" height="570" as="geometry" />
        </mxCell>
        <mxCell id="LQRPac4V3_1cjcKSM1Tx-33" value="marca == null" style="text;html=1;" parent="LQRPac4V3_1cjcKSM1Tx-32" vertex="1">
          <mxGeometry width="100" height="20" relative="1" as="geometry">
            <mxPoint x="20" y="40" as="offset" />
          </mxGeometry>
        </mxCell>
        <mxCell id="LQRPac4V3_1cjcKSM1Tx-34" value="else" style="line;strokeWidth=1;dashed=1;labelPosition=center;verticalLabelPosition=bottom;align=left;verticalAlign=top;spacingLeft=20;spacingTop=15;html=1;whiteSpace=wrap;" parent="LQRPac4V3_1cjcKSM1Tx-32" vertex="1">
          <mxGeometry y="286" width="1280" height="10" as="geometry" />
        </mxCell>
        <mxCell id="LQRPac4V3_1cjcKSM1Tx-38" value="" style="html=1;points=[[0,0,0,0,5],[0,1,0,0,-5],[1,0,0,0,5],[1,1,0,0,-5]];perimeter=orthogonalPerimeter;outlineConnect=0;targetShapes=umlLifeline;portConstraint=eastwest;newEdgeStyle={&quot;curved&quot;:0,&quot;rounded&quot;:0};" parent="LQRPac4V3_1cjcKSM1Tx-32" vertex="1">
          <mxGeometry x="410" y="160" width="10" height="40" as="geometry" />
        </mxCell>
        <mxCell id="LQRPac4V3_1cjcKSM1Tx-39" value="Resposta.message =&lt;div&gt;&quot;Marca já cadastrada&lt;span style=&quot;background-color: light-dark(#ffffff, var(--ge-dark-color, #121212)); color: light-dark(rgb(0, 0, 0), rgb(255, 255, 255));&quot;&gt;&quot;;&lt;/span&gt;&lt;/div&gt;&lt;div&gt;&lt;span style=&quot;background-color: light-dark(#ffffff, var(--ge-dark-color, #121212)); color: light-dark(rgb(0, 0, 0), rgb(255, 255, 255));&quot;&gt;Resposta.status = 409;&lt;/span&gt;&lt;/div&gt;" style="html=1;align=left;spacingLeft=2;endArrow=block;rounded=0;edgeStyle=orthogonalEdgeStyle;curved=0;rounded=0;" parent="LQRPac4V3_1cjcKSM1Tx-32" target="LQRPac4V3_1cjcKSM1Tx-38" edge="1">
          <mxGeometry relative="1" as="geometry">
            <mxPoint x="415" y="140" as="sourcePoint" />
            <Array as="points">
              <mxPoint x="445" y="170" />
            </Array>
          </mxGeometry>
        </mxCell>
        <mxCell id="_hzRe-TMYI4-vib-_koS-4" value="" style="html=1;points=[[0,0,0,0,5],[0,1,0,0,-5],[1,0,0,0,5],[1,1,0,0,-5]];perimeter=orthogonalPerimeter;outlineConnect=0;targetShapes=umlLifeline;portConstraint=eastwest;newEdgeStyle={&quot;curved&quot;:0,&quot;rounded&quot;:0};" vertex="1" parent="LQRPac4V3_1cjcKSM1Tx-32">
          <mxGeometry x="410" y="440" width="10" height="40" as="geometry" />
        </mxCell>
        <mxCell id="_hzRe-TMYI4-vib-_koS-5" value="Resposta.message =&amp;nbsp;&lt;div&gt;&quot;Marca encontrada&quot;;&lt;/div&gt;&lt;div&gt;Resposta.status = 200;&lt;/div&gt;" style="html=1;align=left;spacingLeft=2;endArrow=block;rounded=0;edgeStyle=orthogonalEdgeStyle;curved=0;rounded=0;" edge="1" target="_hzRe-TMYI4-vib-_koS-4" parent="LQRPac4V3_1cjcKSM1Tx-32">
          <mxGeometry relative="1" as="geometry">
            <mxPoint x="415" y="420" as="sourcePoint" />
            <Array as="points">
              <mxPoint x="445" y="450" />
            </Array>
          </mxGeometry>
        </mxCell>
        <mxCell id="LQRPac4V3_1cjcKSM1Tx-35" value="return null" style="html=1;verticalAlign=bottom;endArrow=open;dashed=1;endSize=8;curved=0;rounded=0;" parent="LQRPac4V3_1cjcKSM1Tx-1" edge="1">
          <mxGeometry relative="1" as="geometry">
            <mxPoint x="1190" y="317" as="sourcePoint" />
            <mxPoint x="905" y="317" as="targetPoint" />
          </mxGeometry>
        </mxCell>
        <mxCell id="LQRPac4V3_1cjcKSM1Tx-36" value="return null" style="html=1;verticalAlign=bottom;endArrow=open;dashed=1;endSize=8;curved=0;rounded=0;" parent="LQRPac4V3_1cjcKSM1Tx-1" edge="1">
          <mxGeometry relative="1" as="geometry">
            <mxPoint x="895" y="354" as="sourcePoint" />
            <mxPoint x="665" y="354" as="targetPoint" />
          </mxGeometry>
        </mxCell>
        <mxCell id="LQRPac4V3_1cjcKSM1Tx-37" value="return NotFoundException" style="html=1;verticalAlign=bottom;endArrow=open;dashed=1;endSize=8;curved=0;rounded=0;" parent="LQRPac4V3_1cjcKSM1Tx-1" edge="1">
          <mxGeometry relative="1" as="geometry">
            <mxPoint x="655" y="388" as="sourcePoint" />
            <mxPoint x="435" y="388" as="targetPoint" />
          </mxGeometry>
        </mxCell>
        <mxCell id="LQRPac4V3_1cjcKSM1Tx-40" value="return resposta" style="html=1;verticalAlign=bottom;endArrow=open;dashed=1;endSize=8;curved=0;rounded=0;" parent="LQRPac4V3_1cjcKSM1Tx-1" edge="1">
          <mxGeometry relative="1" as="geometry">
            <mxPoint x="425" y="511.4999999999999" as="sourcePoint" />
            <mxPoint x="205" y="511.4999999999999" as="targetPoint" />
          </mxGeometry>
        </mxCell>
        <mxCell id="_hzRe-TMYI4-vib-_koS-1" value="return &amp;lt;Marca&amp;gt;" style="html=1;verticalAlign=bottom;endArrow=open;dashed=1;endSize=8;curved=0;rounded=0;" edge="1" parent="LQRPac4V3_1cjcKSM1Tx-1">
          <mxGeometry relative="1" as="geometry">
            <mxPoint x="1190" y="607" as="sourcePoint" />
            <mxPoint x="905" y="607" as="targetPoint" />
          </mxGeometry>
        </mxCell>
        <mxCell id="_hzRe-TMYI4-vib-_koS-2" value="return &amp;lt;Marca&amp;gt;" style="html=1;verticalAlign=bottom;endArrow=open;dashed=1;endSize=8;curved=0;rounded=0;" edge="1" parent="LQRPac4V3_1cjcKSM1Tx-1">
          <mxGeometry relative="1" as="geometry">
            <mxPoint x="895" y="644" as="sourcePoint" />
            <mxPoint x="665" y="644" as="targetPoint" />
          </mxGeometry>
        </mxCell>
        <mxCell id="_hzRe-TMYI4-vib-_koS-3" value="return &amp;lt;Marca&amp;gt;" style="html=1;verticalAlign=bottom;endArrow=open;dashed=1;endSize=8;curved=0;rounded=0;" edge="1" parent="LQRPac4V3_1cjcKSM1Tx-1">
          <mxGeometry relative="1" as="geometry">
            <mxPoint x="655" y="679" as="sourcePoint" />
            <mxPoint x="435" y="679" as="targetPoint" />
          </mxGeometry>
        </mxCell>
        <mxCell id="_hzRe-TMYI4-vib-_koS-6" value="return Resposta" style="html=1;verticalAlign=bottom;endArrow=open;dashed=1;endSize=8;curved=0;rounded=0;" edge="1" parent="LQRPac4V3_1cjcKSM1Tx-1">
          <mxGeometry relative="1" as="geometry">
            <mxPoint x="424.99999999999955" y="778.5000000000002" as="sourcePoint" />
            <mxPoint x="205" y="778.5000000000002" as="targetPoint" />
          </mxGeometry>
        </mxCell>
        <mxCell id="_hzRe-TMYI4-vib-_koS-7" value="continue" style="html=1;verticalAlign=bottom;endArrow=block;curved=0;rounded=0;entryX=1;entryY=0.561;entryDx=0;entryDy=0;entryPerimeter=0;" edge="1" parent="LQRPac4V3_1cjcKSM1Tx-1">
          <mxGeometry width="80" relative="1" as="geometry">
            <mxPoint x="205" y="807.79" as="sourcePoint" />
            <mxPoint x="1320.000000000001" y="807.79" as="targetPoint" />
          </mxGeometry>
        </mxCell>
        <mxCell id="_hzRe-TMYI4-vib-_koS-8" value="return Resposta" style="html=1;verticalAlign=bottom;endArrow=open;dashed=1;endSize=8;curved=0;rounded=0;entryX=0;entryY=0.391;entryDx=0;entryDy=0;entryPerimeter=0;" edge="1" parent="LQRPac4V3_1cjcKSM1Tx-1">
          <mxGeometry relative="1" as="geometry">
            <mxPoint x="194.99999999999955" y="550.1700000000001" as="sourcePoint" />
            <mxPoint y="550.1700000000001" as="targetPoint" />
          </mxGeometry>
        </mxCell>
      </root>
    </mxGraphModel>
  </diagram>
</mxfile>
